<svg xmlns="http://www.w3.org/2000/svg" viewBox="0 0 64 64" role="img" aria-label="Minnie Park sunburst mark">
  <g fill="none" stroke="#080808" stroke-width="2.4" stroke-linecap="round">
    <path d="M32 17L32 4 M36.635 17.734L40.652 5.371 M40.817 19.865L48.458 9.348 M44.135 23.183L54.652 15.542 M46.266 27.365L58.629 23.348 M47 32L60 32 M46.266 36.635L58.629 40.652 M44.135 40.817L54.652 48.458 M40.817 44.135L48.458 54.652 M36.635 46.266L40.652 58.629 M32 47L32 60 M27.365 46.266L23.348 58.629 M23.183 44.135L15.542 54.652 M19.865 40.817L9.348 48.458 M17.734 36.635L5.371 40.652 M17 32L4 32 M17.734 27.365L5.371 23.348 M19.865 23.183L9.348 15.542 M23.183 19.865L15.542 9.348 M27.365 17.734L23.348 5.371" />
  </g>
  <circle cx="32" cy="32" r="8.5" fill="#080808" />
</svg>
